<mxfile host="app.diagrams.net" modified="2023-03-24T12:32:16.709Z" agent="Mozilla/5.0 (Windows NT 10.0; Win64; x64; rv:85.0) Gecko/20100101 Firefox/85.0" etag="mRfmrBwyE0YIu2UTx5Zg" version="21.1.0" type="github">
  <diagram id="C5RBs43oDa-KdzZeNtuy" name="Page-1">
    <mxGraphModel dx="1434" dy="793" grid="1" gridSize="10" guides="1" tooltips="1" connect="1" arrows="1" fold="1" page="1" pageScale="1" pageWidth="827" pageHeight="1169" math="0" shadow="0">
      <root>
        <mxCell id="WIyWlLk6GJQsqaUBKTNV-0" />
        <mxCell id="WIyWlLk6GJQsqaUBKTNV-1" parent="WIyWlLk6GJQsqaUBKTNV-0" />
        <mxCell id="sOrfqnFNmwFEJeHvPK2Y-12" style="edgeStyle=orthogonalEdgeStyle;rounded=0;orthogonalLoop=1;jettySize=auto;html=1;entryX=0.5;entryY=0;entryDx=0;entryDy=0;" edge="1" parent="WIyWlLk6GJQsqaUBKTNV-1" source="sOrfqnFNmwFEJeHvPK2Y-1" target="sOrfqnFNmwFEJeHvPK2Y-2">
          <mxGeometry relative="1" as="geometry" />
        </mxCell>
        <mxCell id="sOrfqnFNmwFEJeHvPK2Y-16" style="edgeStyle=orthogonalEdgeStyle;rounded=0;orthogonalLoop=1;jettySize=auto;html=1;" edge="1" parent="WIyWlLk6GJQsqaUBKTNV-1" source="sOrfqnFNmwFEJeHvPK2Y-1" target="sOrfqnFNmwFEJeHvPK2Y-15">
          <mxGeometry relative="1" as="geometry">
            <Array as="points">
              <mxPoint x="810" y="410" />
            </Array>
          </mxGeometry>
        </mxCell>
        <mxCell id="sOrfqnFNmwFEJeHvPK2Y-78" style="edgeStyle=orthogonalEdgeStyle;rounded=0;orthogonalLoop=1;jettySize=auto;html=1;" edge="1" parent="WIyWlLk6GJQsqaUBKTNV-1" source="sOrfqnFNmwFEJeHvPK2Y-1" target="sOrfqnFNmwFEJeHvPK2Y-77">
          <mxGeometry relative="1" as="geometry" />
        </mxCell>
        <mxCell id="sOrfqnFNmwFEJeHvPK2Y-1" value="&lt;div&gt;EntityDefinition&lt;br&gt;(extendable)&lt;br&gt;&lt;/div&gt;" style="rounded=0;whiteSpace=wrap;html=1;" vertex="1" parent="WIyWlLk6GJQsqaUBKTNV-1">
          <mxGeometry x="570" y="380" width="120" height="60" as="geometry" />
        </mxCell>
        <mxCell id="sOrfqnFNmwFEJeHvPK2Y-2" value="&lt;div&gt;Config&lt;/div&gt;" style="rounded=0;whiteSpace=wrap;html=1;" vertex="1" parent="WIyWlLk6GJQsqaUBKTNV-1">
          <mxGeometry x="520" y="525" width="120" height="60" as="geometry" />
        </mxCell>
        <mxCell id="sOrfqnFNmwFEJeHvPK2Y-67" style="edgeStyle=orthogonalEdgeStyle;rounded=0;orthogonalLoop=1;jettySize=auto;html=1;exitX=1;exitY=0.25;exitDx=0;exitDy=0;" edge="1" parent="WIyWlLk6GJQsqaUBKTNV-1" source="sOrfqnFNmwFEJeHvPK2Y-8" target="sOrfqnFNmwFEJeHvPK2Y-64">
          <mxGeometry relative="1" as="geometry" />
        </mxCell>
        <mxCell id="sOrfqnFNmwFEJeHvPK2Y-8" value="IConfigSource" style="swimlane;fontStyle=0;childLayout=stackLayout;horizontal=1;startSize=30;horizontalStack=0;resizeParent=1;resizeParentMax=0;resizeLast=0;collapsible=1;marginBottom=0;whiteSpace=wrap;html=1;" vertex="1" parent="WIyWlLk6GJQsqaUBKTNV-1">
          <mxGeometry x="10" y="510" width="140" height="90" as="geometry" />
        </mxCell>
        <mxCell id="sOrfqnFNmwFEJeHvPK2Y-9" value="&lt;div&gt;Schema&lt;/div&gt;" style="text;strokeColor=none;fillColor=none;align=left;verticalAlign=middle;spacingLeft=4;spacingRight=4;overflow=hidden;points=[[0,0.5],[1,0.5]];portConstraint=eastwest;rotatable=0;whiteSpace=wrap;html=1;" vertex="1" parent="sOrfqnFNmwFEJeHvPK2Y-8">
          <mxGeometry y="30" width="140" height="30" as="geometry" />
        </mxCell>
        <mxCell id="sOrfqnFNmwFEJeHvPK2Y-10" value="Code" style="text;strokeColor=none;fillColor=none;align=left;verticalAlign=middle;spacingLeft=4;spacingRight=4;overflow=hidden;points=[[0,0.5],[1,0.5]];portConstraint=eastwest;rotatable=0;whiteSpace=wrap;html=1;" vertex="1" parent="sOrfqnFNmwFEJeHvPK2Y-8">
          <mxGeometry y="60" width="140" height="30" as="geometry" />
        </mxCell>
        <mxCell id="sOrfqnFNmwFEJeHvPK2Y-15" value="&lt;div&gt;Assets&lt;/div&gt;&lt;div&gt;&lt;br&gt;&lt;/div&gt;" style="rounded=0;whiteSpace=wrap;html=1;" vertex="1" parent="WIyWlLk6GJQsqaUBKTNV-1">
          <mxGeometry x="700" y="640" width="120" height="60" as="geometry" />
        </mxCell>
        <mxCell id="sOrfqnFNmwFEJeHvPK2Y-22" style="edgeStyle=orthogonalEdgeStyle;rounded=0;orthogonalLoop=1;jettySize=auto;html=1;exitX=1;exitY=0.25;exitDx=0;exitDy=0;" edge="1" parent="WIyWlLk6GJQsqaUBKTNV-1" source="sOrfqnFNmwFEJeHvPK2Y-17" target="sOrfqnFNmwFEJeHvPK2Y-9">
          <mxGeometry relative="1" as="geometry" />
        </mxCell>
        <mxCell id="sOrfqnFNmwFEJeHvPK2Y-17" value="IConfigSchema" style="swimlane;fontStyle=0;childLayout=stackLayout;horizontal=1;startSize=30;horizontalStack=0;resizeParent=1;resizeParentMax=0;resizeLast=0;collapsible=1;marginBottom=0;whiteSpace=wrap;html=1;" vertex="1" parent="WIyWlLk6GJQsqaUBKTNV-1">
          <mxGeometry x="30" y="680" width="140" height="90" as="geometry" />
        </mxCell>
        <mxCell id="sOrfqnFNmwFEJeHvPK2Y-18" value="Yaml" style="text;strokeColor=none;fillColor=none;align=left;verticalAlign=middle;spacingLeft=4;spacingRight=4;overflow=hidden;points=[[0,0.5],[1,0.5]];portConstraint=eastwest;rotatable=0;whiteSpace=wrap;html=1;" vertex="1" parent="sOrfqnFNmwFEJeHvPK2Y-17">
          <mxGeometry y="30" width="140" height="30" as="geometry" />
        </mxCell>
        <mxCell id="sOrfqnFNmwFEJeHvPK2Y-19" value="Json" style="text;strokeColor=none;fillColor=none;align=left;verticalAlign=middle;spacingLeft=4;spacingRight=4;overflow=hidden;points=[[0,0.5],[1,0.5]];portConstraint=eastwest;rotatable=0;whiteSpace=wrap;html=1;" vertex="1" parent="sOrfqnFNmwFEJeHvPK2Y-17">
          <mxGeometry y="60" width="140" height="30" as="geometry" />
        </mxCell>
        <mxCell id="sOrfqnFNmwFEJeHvPK2Y-29" style="edgeStyle=orthogonalEdgeStyle;rounded=0;orthogonalLoop=1;jettySize=auto;html=1;entryX=-0.007;entryY=0.156;entryDx=0;entryDy=0;entryPerimeter=0;" edge="1" parent="WIyWlLk6GJQsqaUBKTNV-1" source="sOrfqnFNmwFEJeHvPK2Y-25" target="sOrfqnFNmwFEJeHvPK2Y-17">
          <mxGeometry relative="1" as="geometry" />
        </mxCell>
        <mxCell id="sOrfqnFNmwFEJeHvPK2Y-25" value="&lt;div&gt;IFileSource&lt;/div&gt;" style="swimlane;fontStyle=0;childLayout=stackLayout;horizontal=1;startSize=30;horizontalStack=0;resizeParent=1;resizeParentMax=0;resizeLast=0;collapsible=1;marginBottom=0;whiteSpace=wrap;html=1;" vertex="1" parent="WIyWlLk6GJQsqaUBKTNV-1">
          <mxGeometry x="350" y="740" width="140" height="120" as="geometry" />
        </mxCell>
        <mxCell id="sOrfqnFNmwFEJeHvPK2Y-26" value="Disk" style="text;strokeColor=none;fillColor=none;align=left;verticalAlign=middle;spacingLeft=4;spacingRight=4;overflow=hidden;points=[[0,0.5],[1,0.5]];portConstraint=eastwest;rotatable=0;whiteSpace=wrap;html=1;" vertex="1" parent="sOrfqnFNmwFEJeHvPK2Y-25">
          <mxGeometry y="30" width="140" height="30" as="geometry" />
        </mxCell>
        <mxCell id="sOrfqnFNmwFEJeHvPK2Y-27" value="AssetBundle" style="text;strokeColor=none;fillColor=none;align=left;verticalAlign=middle;spacingLeft=4;spacingRight=4;overflow=hidden;points=[[0,0.5],[1,0.5]];portConstraint=eastwest;rotatable=0;whiteSpace=wrap;html=1;" vertex="1" parent="sOrfqnFNmwFEJeHvPK2Y-25">
          <mxGeometry y="60" width="140" height="30" as="geometry" />
        </mxCell>
        <mxCell id="sOrfqnFNmwFEJeHvPK2Y-28" value="Manifest" style="text;strokeColor=none;fillColor=none;align=left;verticalAlign=middle;spacingLeft=4;spacingRight=4;overflow=hidden;points=[[0,0.5],[1,0.5]];portConstraint=eastwest;rotatable=0;whiteSpace=wrap;html=1;" vertex="1" parent="sOrfqnFNmwFEJeHvPK2Y-25">
          <mxGeometry y="90" width="140" height="30" as="geometry" />
        </mxCell>
        <mxCell id="sOrfqnFNmwFEJeHvPK2Y-73" style="edgeStyle=orthogonalEdgeStyle;rounded=0;orthogonalLoop=1;jettySize=auto;html=1;entryX=0;entryY=0.5;entryDx=0;entryDy=0;" edge="1" parent="WIyWlLk6GJQsqaUBKTNV-1" source="sOrfqnFNmwFEJeHvPK2Y-30" target="sOrfqnFNmwFEJeHvPK2Y-1">
          <mxGeometry relative="1" as="geometry" />
        </mxCell>
        <mxCell id="sOrfqnFNmwFEJeHvPK2Y-30" value="&lt;div&gt;modding &lt;br&gt;&lt;/div&gt;&lt;div&gt;API&lt;/div&gt;" style="ellipse;whiteSpace=wrap;html=1;" vertex="1" parent="WIyWlLk6GJQsqaUBKTNV-1">
          <mxGeometry x="290" y="280" width="140" height="90" as="geometry" />
        </mxCell>
        <mxCell id="sOrfqnFNmwFEJeHvPK2Y-36" style="edgeStyle=orthogonalEdgeStyle;rounded=0;orthogonalLoop=1;jettySize=auto;html=1;entryX=0.5;entryY=0;entryDx=0;entryDy=0;" edge="1" parent="WIyWlLk6GJQsqaUBKTNV-1" source="sOrfqnFNmwFEJeHvPK2Y-35" target="sOrfqnFNmwFEJeHvPK2Y-42">
          <mxGeometry relative="1" as="geometry">
            <mxPoint x="620" y="230" as="targetPoint" />
          </mxGeometry>
        </mxCell>
        <mxCell id="sOrfqnFNmwFEJeHvPK2Y-35" value="&lt;div&gt;Injection Point(s)&lt;/div&gt;" style="ellipse;whiteSpace=wrap;html=1;" vertex="1" parent="WIyWlLk6GJQsqaUBKTNV-1">
          <mxGeometry x="60" y="20" width="120" height="80" as="geometry" />
        </mxCell>
        <mxCell id="sOrfqnFNmwFEJeHvPK2Y-72" style="edgeStyle=orthogonalEdgeStyle;rounded=0;orthogonalLoop=1;jettySize=auto;html=1;entryX=0.5;entryY=0;entryDx=0;entryDy=0;" edge="1" parent="WIyWlLk6GJQsqaUBKTNV-1" source="sOrfqnFNmwFEJeHvPK2Y-42" target="sOrfqnFNmwFEJeHvPK2Y-1">
          <mxGeometry relative="1" as="geometry" />
        </mxCell>
        <mxCell id="sOrfqnFNmwFEJeHvPK2Y-42" value="&lt;div&gt;EntityManager&lt;/div&gt;" style="swimlane;fontStyle=0;childLayout=stackLayout;horizontal=1;startSize=30;horizontalStack=0;resizeParent=1;resizeParentMax=0;resizeLast=0;collapsible=1;marginBottom=0;whiteSpace=wrap;html=1;" vertex="1" parent="WIyWlLk6GJQsqaUBKTNV-1">
          <mxGeometry x="440" y="110" width="260" height="150" as="geometry">
            <mxRectangle x="560" y="110" width="120" height="30" as="alternateBounds" />
          </mxGeometry>
        </mxCell>
        <mxCell id="sOrfqnFNmwFEJeHvPK2Y-43" value="LoadEntity()" style="text;strokeColor=none;fillColor=none;align=left;verticalAlign=middle;spacingLeft=4;spacingRight=4;overflow=hidden;points=[[0,0.5],[1,0.5]];portConstraint=eastwest;rotatable=0;whiteSpace=wrap;html=1;" vertex="1" parent="sOrfqnFNmwFEJeHvPK2Y-42">
          <mxGeometry y="30" width="260" height="30" as="geometry" />
        </mxCell>
        <mxCell id="sOrfqnFNmwFEJeHvPK2Y-44" value="&lt;div&gt;Register/Pool Entity()&lt;/div&gt;" style="text;strokeColor=none;fillColor=none;align=left;verticalAlign=middle;spacingLeft=4;spacingRight=4;overflow=hidden;points=[[0,0.5],[1,0.5]];portConstraint=eastwest;rotatable=0;whiteSpace=wrap;html=1;" vertex="1" parent="sOrfqnFNmwFEJeHvPK2Y-42">
          <mxGeometry y="60" width="260" height="30" as="geometry" />
        </mxCell>
        <mxCell id="sOrfqnFNmwFEJeHvPK2Y-69" value="ReloadEntities()" style="text;strokeColor=none;fillColor=none;align=left;verticalAlign=middle;spacingLeft=4;spacingRight=4;overflow=hidden;points=[[0,0.5],[1,0.5]];portConstraint=eastwest;rotatable=0;whiteSpace=wrap;html=1;" vertex="1" parent="sOrfqnFNmwFEJeHvPK2Y-42">
          <mxGeometry y="90" width="260" height="30" as="geometry" />
        </mxCell>
        <mxCell id="sOrfqnFNmwFEJeHvPK2Y-71" value="UniquefyIds()" style="text;strokeColor=none;fillColor=none;align=left;verticalAlign=middle;spacingLeft=4;spacingRight=4;overflow=hidden;points=[[0,0.5],[1,0.5]];portConstraint=eastwest;rotatable=0;whiteSpace=wrap;html=1;" vertex="1" parent="sOrfqnFNmwFEJeHvPK2Y-42">
          <mxGeometry y="120" width="260" height="30" as="geometry" />
        </mxCell>
        <mxCell id="sOrfqnFNmwFEJeHvPK2Y-51" style="edgeStyle=orthogonalEdgeStyle;rounded=0;orthogonalLoop=1;jettySize=auto;html=1;entryX=0.5;entryY=1;entryDx=0;entryDy=0;" edge="1" parent="WIyWlLk6GJQsqaUBKTNV-1" source="sOrfqnFNmwFEJeHvPK2Y-48" target="sOrfqnFNmwFEJeHvPK2Y-15">
          <mxGeometry relative="1" as="geometry" />
        </mxCell>
        <mxCell id="sOrfqnFNmwFEJeHvPK2Y-48" value="&lt;div&gt;AssetLoader&lt;/div&gt;" style="rounded=0;whiteSpace=wrap;html=1;" vertex="1" parent="WIyWlLk6GJQsqaUBKTNV-1">
          <mxGeometry x="680" y="755" width="120" height="60" as="geometry" />
        </mxCell>
        <mxCell id="sOrfqnFNmwFEJeHvPK2Y-50" style="edgeStyle=orthogonalEdgeStyle;rounded=0;orthogonalLoop=1;jettySize=auto;html=1;entryX=0;entryY=0.5;entryDx=0;entryDy=0;" edge="1" parent="WIyWlLk6GJQsqaUBKTNV-1" source="sOrfqnFNmwFEJeHvPK2Y-26" target="sOrfqnFNmwFEJeHvPK2Y-48">
          <mxGeometry relative="1" as="geometry" />
        </mxCell>
        <mxCell id="sOrfqnFNmwFEJeHvPK2Y-57" value="&lt;div&gt;Check errors and Default values&lt;/div&gt;" style="ellipse;whiteSpace=wrap;html=1;" vertex="1" parent="WIyWlLk6GJQsqaUBKTNV-1">
          <mxGeometry x="270" y="610" width="120" height="70" as="geometry" />
        </mxCell>
        <mxCell id="sOrfqnFNmwFEJeHvPK2Y-66" style="edgeStyle=orthogonalEdgeStyle;rounded=0;orthogonalLoop=1;jettySize=auto;html=1;exitX=1;exitY=0;exitDx=0;exitDy=0;entryX=0.093;entryY=0.814;entryDx=0;entryDy=0;entryPerimeter=0;" edge="1" parent="WIyWlLk6GJQsqaUBKTNV-1" source="sOrfqnFNmwFEJeHvPK2Y-64" target="sOrfqnFNmwFEJeHvPK2Y-30">
          <mxGeometry relative="1" as="geometry" />
        </mxCell>
        <mxCell id="sOrfqnFNmwFEJeHvPK2Y-80" style="edgeStyle=orthogonalEdgeStyle;rounded=0;orthogonalLoop=1;jettySize=auto;html=1;" edge="1" parent="WIyWlLk6GJQsqaUBKTNV-1" source="sOrfqnFNmwFEJeHvPK2Y-64" target="sOrfqnFNmwFEJeHvPK2Y-57">
          <mxGeometry relative="1" as="geometry" />
        </mxCell>
        <mxCell id="sOrfqnFNmwFEJeHvPK2Y-81" style="edgeStyle=orthogonalEdgeStyle;rounded=0;orthogonalLoop=1;jettySize=auto;html=1;entryX=0;entryY=0.5;entryDx=0;entryDy=0;" edge="1" parent="WIyWlLk6GJQsqaUBKTNV-1" source="sOrfqnFNmwFEJeHvPK2Y-64" target="sOrfqnFNmwFEJeHvPK2Y-2">
          <mxGeometry relative="1" as="geometry" />
        </mxCell>
        <mxCell id="sOrfqnFNmwFEJeHvPK2Y-64" value="&lt;div&gt;ConfigFactory&lt;/div&gt;" style="ellipse;whiteSpace=wrap;html=1;" vertex="1" parent="WIyWlLk6GJQsqaUBKTNV-1">
          <mxGeometry x="270" y="480" width="120" height="80" as="geometry" />
        </mxCell>
        <mxCell id="sOrfqnFNmwFEJeHvPK2Y-70" style="edgeStyle=orthogonalEdgeStyle;rounded=0;orthogonalLoop=1;jettySize=auto;html=1;entryX=0.5;entryY=0;entryDx=0;entryDy=0;" edge="1" parent="WIyWlLk6GJQsqaUBKTNV-1" source="sOrfqnFNmwFEJeHvPK2Y-69" target="sOrfqnFNmwFEJeHvPK2Y-30">
          <mxGeometry relative="1" as="geometry" />
        </mxCell>
        <mxCell id="sOrfqnFNmwFEJeHvPK2Y-77" value="&lt;div&gt;Assemblies&lt;/div&gt;" style="rounded=0;whiteSpace=wrap;html=1;" vertex="1" parent="WIyWlLk6GJQsqaUBKTNV-1">
          <mxGeometry x="660" y="525" width="120" height="60" as="geometry" />
        </mxCell>
        <mxCell id="sOrfqnFNmwFEJeHvPK2Y-82" value="" style="shape=flexArrow;endArrow=classic;html=1;rounded=0;" edge="1" parent="WIyWlLk6GJQsqaUBKTNV-1" target="sOrfqnFNmwFEJeHvPK2Y-83">
          <mxGeometry width="50" height="50" relative="1" as="geometry">
            <mxPoint x="100" y="410" as="sourcePoint" />
            <mxPoint x="110" y="480" as="targetPoint" />
          </mxGeometry>
        </mxCell>
        <mxCell id="sOrfqnFNmwFEJeHvPK2Y-83" value="Text" style="text;html=1;strokeColor=none;fillColor=none;align=center;verticalAlign=middle;whiteSpace=wrap;rounded=0;" vertex="1" parent="WIyWlLk6GJQsqaUBKTNV-1">
          <mxGeometry x="80" y="465" width="60" height="30" as="geometry" />
        </mxCell>
        <mxCell id="sOrfqnFNmwFEJeHvPK2Y-84" value="&lt;div&gt;makes no sense&lt;/div&gt;" style="text;html=1;align=center;verticalAlign=middle;resizable=0;points=[];autosize=1;strokeColor=none;fillColor=none;" vertex="1" parent="WIyWlLk6GJQsqaUBKTNV-1">
          <mxGeometry x="40" y="380" width="120" height="30" as="geometry" />
        </mxCell>
      </root>
    </mxGraphModel>
  </diagram>
</mxfile>
